<svg width="28" height="20" viewBox="0 0 28 20" fill="none" xmlns="http://www.w3.org/2000/svg">
<path d="M2.152 6.112C2.152 6.416 2.136 6.728 2.104 7.048C2.088 7.368 2.064 7.656 2.032 7.912H2.176C2.448 7.464 2.792 7.096 3.208 6.808C3.624 6.52 4.088 6.304 4.6 6.16C5.112 6 5.64 5.92 6.184 5.92C7.224 5.92 8.088 6.088 8.776 6.424C9.48 6.744 10.008 7.248 10.36 7.936C10.712 8.624 10.888 9.52 10.888 10.624V19H8.8V10.768C8.8 9.728 8.568 8.952 8.104 8.44C7.64 7.928 6.912 7.672 5.92 7.672C4.96 7.672 4.208 7.856 3.664 8.224C3.12 8.576 2.728 9.104 2.488 9.808C2.264 10.496 2.152 11.344 2.152 12.352V19H0.04V0.759999H2.152V6.112Z" fill="#855FFF"/>
<path d="M17.7079 19L12.8359 6.136H15.0919L17.8279 13.72C17.9559 14.072 18.0919 14.464 18.2359 14.896C18.3799 15.328 18.5079 15.744 18.6199 16.144C18.7319 16.528 18.8119 16.856 18.8599 17.128H18.9559C19.0199 16.856 19.1079 16.52 19.2199 16.12C19.3479 15.72 19.4839 15.304 19.6279 14.872C19.7879 14.44 19.9239 14.056 20.0359 13.72L22.7719 6.136H25.0279L20.1319 19H17.7079ZM27.9531 17.5234C27.9531 17.9141 27.8125 18.2656 27.5312 18.5781C27.25 18.8906 26.9219 19.0469 26.5469 19.0469C25.5312 19.0469 25.0234 18.5859 25.0234 17.6641C25.0234 17.2422 25.1641 16.8828 25.4453 16.5859C25.7422 16.2734 26.1016 16.1172 26.5234 16.1172C26.9453 16.1172 27.2891 16.25 27.5547 16.5156C27.8203 16.7656 27.9531 17.1016 27.9531 17.5234Z" fill="white"/>
</svg>
